# xmcd
#
# Track frame offsets: 
#        150
#        14356
#        25621
#        41687
#        56937
#        71696
#        84869
#        95719
#        110167
#        120810
#        136454
#        151791
#        163945
#        178116
#        193020
#        205126
#        218779
#        230357
#        240571
#        253500
#
# Disc length: 3605 seconds
#
# Revision: 0
# Processed by: cddbd v1.5.2PL0 Copyright (c) Steve Scherf et al.
# Submitted via: ExactAudioCopyFreeDBPlugin 1.0
#
DISCID=120e1314
DTITLE=Various Artist - Classic Stax - 2
DYEAR=1900
DGENRE=Soul
TTITLE0=Eddie Floyd - Knock On Wood
TTITLE1=Sam and Dave - Hold On I'm Coming
TTITLE2=The Dramatics - Whatcha See Is Whatcha Get
TTITLE3=The Staple Singers - If You're Ready (Come Go With Me)
TTITLE4=Isaac Hayes - Do Your Thing
TTITLE5=Carla Thomas - B-A-B-Y
TTITLE6=David Porter - If I Give It Up, I Want It Back
TTITLE7=The Emotions - Stealing Love
TTITLE8=Booker T and The MGs - Soul Limbo
TTITLE9=Johnnie Taylor - Cheaper To Keep Her
TTITLE10=The Bar-Kays - Son Of Shaft
TTITLE11=The Mad Lads - I Want Someone
TTITLE12=Ruby Johnson - I'll Run Your Heart Away
TTITLE13=Rufus Thomas - The Breakdown
TTITLE14=William Bell feat. Judy Clay - Private Number
TTITLE15=The Astors - Candy
TTITLE16=Sir Mack Rice - Mini-Skirt Minnie
TTITLE17=The Mar-Keys - Philly Dog
TTITLE18=Rance Allen Group - I Got To Be Myself
TTITLE19=Otis Redding - Try A Little Tenderness
EXTD=
EXTT0=
EXTT1=
EXTT2=
EXTT3=
EXTT4=
EXTT5=
EXTT6=
EXTT7=
EXTT8=
EXTT9=
EXTT10=
EXTT11=
EXTT12=
EXTT13=
EXTT14=
EXTT15=
EXTT16=
EXTT17=
EXTT18=
EXTT19=
PLAYORDER=
